<?xml version="1.0" encoding="utf-8"?>
<svg viewBox="131 91 150 150" xmlns="http://www.w3.org/2000/svg">
  <g id="svg_2" transform="matrix(1, 0, 0, 1, 128.599991, 91.518692)">
    <path id="svg_3" d="m67.9,72.7c0.1,0.1 0.1,0.3 0.1,0.3c8.9,4.1 11.6,9.3 9.8,19.2c-3,16.5 -14,25.8 -30.8,26c-10.9,0.1 -21.8,0 -32.6,0.1c-2.5,0 -3,-0.8 -2.5,-3.1c5.6,-27 11.1,-54 16.5,-81c0.5,-2.3 1.5,-3.2 3.9,-3.2c10.9,0 21.8,-0.1 32.7,0c2.5,0 5.2,0.4 7.6,1.1c8,2 12.4,7.8 11.8,16c-0.8,10.9 -5,19.8 -16,24c-0.2,0.1 -0.3,0.4 -0.5,0.6zm-26.1,29.3c6.6,0 10.3,-2.8 12.1,-9.4c2.2,-8 -0.6,-11.6 -8.7,-11.5c-0.1,0 -0.2,0 -0.3,0c-2,-0.3 -3,0.5 -3.4,2.6c-0.9,4.8 -2.1,9.5 -3.2,14.3c-0.8,4 -0.8,4 3.5,4zm3.9,-37.2c8.7,2.5 15.9,-4.1 14,-12.3c-0.8,-3.5 -7,-6 -9.9,-4c-0.3,0.2 -0.5,0.5 -0.6,0.9c-1.3,5.1 -2.4,10.3 -3.5,15.4z" class="st1" style="stroke-width: 0;"/>
    <path id="svg_4" d="m106.7,101.4c1.1,0 2.3,0 3.4,0c5.8,0 11.6,0 17.4,0c3.4,0 3.4,0.1 2.6,3.4c-0.7,2.9 -1.4,5.7 -1.9,8.6c-0.4,2.7 -1.5,3.9 -4.5,3.9c-15,-0.1 -30,0 -45,0.1c-0.2,0 -0.3,-0.1 -0.8,-0.3c0.1,-0.9 0.1,-2 0.3,-3.1c0.6,-3 1.3,-5.9 1.8,-8.9c0.4,-2.6 1.6,-4.7 3.5,-6.6c8.6,-8.8 17.1,-17.8 25.6,-26.7c0.4,-0.4 0.7,-0.9 1.5,-1.9c-1.4,-0.1 -2.4,-0.2 -3.3,-0.2c-5.3,0 -10.7,-0.1 -16,0c-2.1,0 -2.8,-0.7 -2.3,-2.8c0.9,-4 1.7,-8.1 2.5,-12.2c0.3,-1.6 1.1,-2.2 2.6,-2.2c14.8,0 29.7,0 44.5,0c2.2,0 2.9,0.9 2.4,3.1c-0.9,3.7 -1.6,7.6 -2.6,11.3c-0.4,1.3 -1.2,2.7 -2.2,3.7c-9,9.2 -18.1,18.3 -27.2,27.5c-0.8,0.8 -1.6,1.7 -2.4,2.6c-0.1,0.2 0,0.4 0.1,0.7z" class="st1" style="stroke-width: 0;"/>
  </g>
</svg>